<svg width="24" height="19" viewBox="0 0 24 19" fill="none" xmlns="http://www.w3.org/2000/svg">
<path d="M23.5312 6.89502C22.4531 7.73877 21.0938 8.77002 16.3125 12.2388C15.375 12.9419 13.6406 14.4888 12 14.4888C10.3125 14.4888 8.625 12.9419 7.64062 12.2388C2.85938 8.77002 1.5 7.73877 0.421875 6.89502C0.234375 6.75439 0 6.89502 0 7.12939V16.6919C0 17.9575 0.984375 18.9419 2.25 18.9419H21.75C22.9688 18.9419 24 17.9575 24 16.6919V7.12939C24 6.89502 23.7188 6.75439 23.5312 6.89502ZM12 12.9419C13.0781 12.9888 14.625 11.5825 15.4219 11.02C21.6562 6.52002 22.125 6.09814 23.5312 4.97314C23.8125 4.78564 24 4.45752 24 4.08252V3.19189C24 1.97314 22.9688 0.941895 21.75 0.941895H2.25C0.984375 0.941895 0 1.97314 0 3.19189V4.08252C0 4.45752 0.140625 4.78564 0.421875 4.97314C1.82812 6.09814 2.29688 6.52002 8.53125 11.02C9.32812 11.5825 10.875 12.9888 12 12.9419Z" fill="#ADADAD"/>
</svg>
