<svg width="21" height="22" viewBox="0 0 21 22" fill="none" xmlns="http://www.w3.org/2000/svg">
<path d="M10.5234 5.71582C7.52344 5.71582 5.13281 8.15332 5.13281 11.1064C5.13281 14.1064 7.52344 16.4971 10.5234 16.4971C13.4766 16.4971 15.9141 14.1064 15.9141 11.1064C15.9141 8.15332 13.4766 5.71582 10.5234 5.71582ZM10.5234 14.6221C8.60156 14.6221 7.00781 13.0752 7.00781 11.1064C7.00781 9.18457 8.55469 7.6377 10.5234 7.6377C12.4453 7.6377 13.9922 9.18457 13.9922 11.1064C13.9922 13.0752 12.4453 14.6221 10.5234 14.6221ZM17.3672 5.52832C17.3672 4.8252 16.8047 4.2627 16.1016 4.2627C15.3984 4.2627 14.8359 4.8252 14.8359 5.52832C14.8359 6.23145 15.3984 6.79395 16.1016 6.79395C16.8047 6.79395 17.3672 6.23145 17.3672 5.52832ZM20.9297 6.79395C20.8359 5.10645 20.4609 3.60645 19.2422 2.3877C18.0234 1.16895 16.5234 0.793945 14.8359 0.700195C13.1016 0.606445 7.89844 0.606445 6.16406 0.700195C4.47656 0.793945 3.02344 1.16895 1.75781 2.3877C0.539062 3.60645 0.164062 5.10645 0.0703125 6.79395C-0.0234375 8.52832 -0.0234375 13.7314 0.0703125 15.4658C0.164062 17.1533 0.539062 18.6064 1.75781 19.8721C3.02344 21.0908 4.47656 21.4658 6.16406 21.5596C7.89844 21.6533 13.1016 21.6533 14.8359 21.5596C16.5234 21.4658 18.0234 21.0908 19.2422 19.8721C20.4609 18.6064 20.8359 17.1533 20.9297 15.4658C21.0234 13.7314 21.0234 8.52832 20.9297 6.79395ZM18.6797 17.2939C18.3516 18.2314 17.6016 18.9346 16.7109 19.3096C15.3047 19.8721 12.0234 19.7314 10.5234 19.7314C8.97656 19.7314 5.69531 19.8721 4.33594 19.3096C3.39844 18.9346 2.69531 18.2314 2.32031 17.2939C1.75781 15.9346 1.89844 12.6533 1.89844 11.1064C1.89844 9.60645 1.75781 6.3252 2.32031 4.91895C2.69531 4.02832 3.39844 3.3252 4.33594 2.9502C5.69531 2.3877 8.97656 2.52832 10.5234 2.52832C12.0234 2.52832 15.3047 2.3877 16.7109 2.9502C17.6016 3.27832 18.3047 4.02832 18.6797 4.91895C19.2422 6.3252 19.1016 9.60645 19.1016 11.1064C19.1016 12.6533 19.2422 15.9346 18.6797 17.2939Z" fill="#F5F5F5"/>
</svg>
