<svg width="15" height="15" viewBox="0 0 15 15" fill="none" xmlns="http://www.w3.org/2000/svg">
<path d="M13.8086 12.8052L11.0742 10.0708C10.9375 9.96143 10.7734 9.87939 10.6094 9.87939H10.1719C10.9102 8.92236 11.375 7.71924 11.375 6.37939C11.375 3.26221 8.80469 0.691895 5.6875 0.691895C2.54297 0.691895 0 3.26221 0 6.37939C0 9.52393 2.54297 12.0669 5.6875 12.0669C7 12.0669 8.20312 11.6294 9.1875 10.8638V11.3286C9.1875 11.4927 9.24219 11.6567 9.37891 11.7935L12.0859 14.5005C12.3594 14.7739 12.7695 14.7739 13.0156 14.5005L13.7812 13.7349C14.0547 13.4888 14.0547 13.0786 13.8086 12.8052ZM5.6875 9.87939C3.74609 9.87939 2.1875 8.3208 2.1875 6.37939C2.1875 4.46533 3.74609 2.87939 5.6875 2.87939C7.60156 2.87939 9.1875 4.46533 9.1875 6.37939C9.1875 8.3208 7.60156 9.87939 5.6875 9.87939Z" fill="white"/>
</svg>
