<svg width="25" height="21" viewBox="0 0 25 21" fill="none" xmlns="http://www.w3.org/2000/svg">
<path d="M21.7656 5.45801C22.7031 4.75488 23.5469 3.91113 24.2031 2.92676C23.3594 3.30176 22.375 3.58301 21.3906 3.67676C22.4219 3.06738 23.1719 2.12988 23.5469 0.958008C22.6094 1.52051 21.5312 1.94238 20.4531 2.17676C19.5156 1.19238 18.25 0.629883 16.8438 0.629883C14.125 0.629883 11.9219 2.83301 11.9219 5.55176C11.9219 5.92676 11.9688 6.30176 12.0625 6.67676C7.98438 6.44238 4.32812 4.47363 1.89062 1.52051C1.46875 2.22363 1.23438 3.06738 1.23438 4.00488C1.23438 5.69238 2.07812 7.19238 3.4375 8.08301C2.64062 8.03613 1.84375 7.84863 1.1875 7.47363V7.52051C1.1875 9.91113 2.875 11.8799 5.125 12.3486C4.75 12.4424 4.28125 12.5361 3.85938 12.5361C3.53125 12.5361 3.25 12.4893 2.92188 12.4424C3.53125 14.4111 5.35938 15.8174 7.51562 15.8643C5.82812 17.1768 3.71875 17.9736 1.42188 17.9736C1 17.9736 0.625 17.9268 0.25 17.8799C2.40625 19.2861 4.98438 20.083 7.79688 20.083C16.8438 20.083 21.7656 12.6299 21.7656 6.11426C21.7656 5.87988 21.7656 5.69238 21.7656 5.45801Z" fill="#F5F5F5"/>
</svg>
