<svg width="102" height="113" viewBox="0 0 102 113" fill="none" xmlns="http://www.w3.org/2000/svg">
<g filter="url(#filter0_dd_401_1756)">
<rect x="32.9044" y="18.2153" width="37.0479" height="48.1338" rx="18.5239" fill="#FFB30E"/>
<rect x="33.4044" y="18.7153" width="36.0479" height="47.1338" rx="18.0239" stroke="#FAAA01"/>
<path d="M42.3395 41.2188C41.7594 41.7988 41.7594 42.7656 42.3395 43.3457L54.8434 55.9141C55.4879 56.4941 56.4547 56.4941 57.0348 55.9141L58.5172 54.4316C59.0973 53.8516 59.0973 52.8848 58.5172 52.2402L48.5914 42.25L58.5172 32.3242C59.0973 31.6797 59.0973 30.7129 58.5172 30.1328L57.0348 28.6504C56.4547 28.0703 55.4879 28.0703 54.8434 28.6504L42.3395 41.2188Z" fill="white"/>
</g>
<defs>
<filter id="filter0_dd_401_1756" x="0.904419" y="0.215332" width="101.048" height="112.134" filterUnits="userSpaceOnUse" color-interpolation-filters="sRGB">
<feFlood flood-opacity="0" result="BackgroundImageFix"/>
<feColorMatrix in="SourceAlpha" type="matrix" values="0 0 0 0 0 0 0 0 0 0 0 0 0 0 0 0 0 0 127 0" result="hardAlpha"/>
<feOffset dy="14"/>
<feGaussianBlur stdDeviation="16"/>
<feColorMatrix type="matrix" values="0 0 0 0 1 0 0 0 0 0.698039 0 0 0 0 0.054902 0 0 0 0.29 0"/>
<feBlend mode="normal" in2="BackgroundImageFix" result="effect1_dropShadow_401_1756"/>
<feColorMatrix in="SourceAlpha" type="matrix" values="0 0 0 0 0 0 0 0 0 0 0 0 0 0 0 0 0 0 127 0" result="hardAlpha"/>
<feOffset dy="5"/>
<feGaussianBlur stdDeviation="4"/>
<feColorMatrix type="matrix" values="0 0 0 0 0.870833 0 0 0 0 0.5926 0 0 0 0 0 0 0 0 0.24 0"/>
<feBlend mode="normal" in2="effect1_dropShadow_401_1756" result="effect2_dropShadow_401_1756"/>
<feBlend mode="normal" in="SourceGraphic" in2="effect2_dropShadow_401_1756" result="shape"/>
</filter>
</defs>
</svg>
