<svg width="102" height="113" viewBox="0 0 102 113" fill="none" xmlns="http://www.w3.org/2000/svg">
<g filter="url(#filter0_dd_401_1758)">
<rect x="32.9523" y="18.2153" width="37.0479" height="48.1338" rx="18.5239" fill="#FFB30E"/>
<rect x="33.4523" y="18.7153" width="36.0479" height="47.1338" rx="18.0239" stroke="#FAAA01"/>
<path d="M60.5651 43.3457C61.1451 42.7656 61.1451 41.7988 60.5651 41.2188L48.0612 28.6504C47.4166 28.0703 46.4498 28.0703 45.8698 28.6504L44.3873 30.1328C43.8073 30.7129 43.8073 31.6797 44.3873 32.3242L54.3131 42.25L44.3873 52.2402C43.8073 52.8848 43.8073 53.8516 44.3873 54.4316L45.8698 55.9141C46.4498 56.4941 47.4166 56.4941 48.0612 55.9141L60.5651 43.3457Z" fill="white"/>
</g>
<defs>
<filter id="filter0_dd_401_1758" x="0.952271" y="0.215332" width="101.048" height="112.134" filterUnits="userSpaceOnUse" color-interpolation-filters="sRGB">
<feFlood flood-opacity="0" result="BackgroundImageFix"/>
<feColorMatrix in="SourceAlpha" type="matrix" values="0 0 0 0 0 0 0 0 0 0 0 0 0 0 0 0 0 0 127 0" result="hardAlpha"/>
<feOffset dy="14"/>
<feGaussianBlur stdDeviation="16"/>
<feColorMatrix type="matrix" values="0 0 0 0 1 0 0 0 0 0.698039 0 0 0 0 0.054902 0 0 0 0.29 0"/>
<feBlend mode="normal" in2="BackgroundImageFix" result="effect1_dropShadow_401_1758"/>
<feColorMatrix in="SourceAlpha" type="matrix" values="0 0 0 0 0 0 0 0 0 0 0 0 0 0 0 0 0 0 127 0" result="hardAlpha"/>
<feOffset dy="5"/>
<feGaussianBlur stdDeviation="4"/>
<feColorMatrix type="matrix" values="0 0 0 0 0.870833 0 0 0 0 0.5926 0 0 0 0 0 0 0 0 0.24 0"/>
<feBlend mode="normal" in2="effect1_dropShadow_401_1758" result="effect2_dropShadow_401_1758"/>
<feBlend mode="normal" in="SourceGraphic" in2="effect2_dropShadow_401_1758" result="shape"/>
</filter>
</defs>
</svg>
